<svg width="50" height="50" viewBox="0 0 50 50" fill="none" xmlns="http://www.w3.org/2000/svg">
<rect width="50" height="50" rx="25" fill="white"/>
<g clip-path="url(#clip0_903_3)">
<path d="M22.1099 26.89C20.01 24.7902 19.5359 22.6903 19.4289 21.849C19.399 21.6164 19.4791 21.3831 19.6455 21.2178L21.3448 19.5193C21.5948 19.2695 21.6392 18.8801 21.4518 18.5805L18.7462 14.3792C18.5389 14.0474 18.1133 13.9277 17.7634 14.1027L13.4199 16.1483C13.137 16.2877 12.9705 16.5883 13.0027 16.902C13.2302 19.0641 14.1728 24.379 19.3959 29.6025C24.619 34.826 29.9332 35.7682 32.0964 35.9958C32.4101 36.0279 32.7107 35.8615 32.8501 35.5785L34.8957 31.235C35.0701 30.8859 34.9511 30.4614 34.6207 30.2538L30.4195 27.5489C30.12 27.3613 29.7307 27.4054 29.4807 27.6551L27.7821 29.3544C27.6168 29.5208 27.3836 29.6009 27.1509 29.571C26.3096 29.464 24.2098 28.9899 22.1099 26.89V26.89Z" fill="#0D4C93"/>
<path d="M30.4483 25.7587C30.0293 25.7587 29.6897 25.4191 29.6897 25.0001C29.6861 21.8593 27.1409 19.314 24 19.3105C23.581 19.3105 23.2414 18.9708 23.2414 18.5518C23.2414 18.1329 23.581 17.7932 24 17.7932C27.9785 17.7976 31.2025 21.0217 31.2069 25.0001C31.2069 25.4191 30.8673 25.7587 30.4483 25.7587Z" fill="#0D4C93"/>
<path d="M34.2414 25.7586C33.8224 25.7586 33.4828 25.419 33.4828 25C33.4769 19.7652 29.2348 15.5231 24 15.5172C23.581 15.5172 23.2414 15.1776 23.2414 14.7586C23.2414 14.3396 23.581 14 24 14C30.0724 14.0067 34.9933 18.9276 35 25C35 25.2012 34.9201 25.3942 34.7778 25.5364C34.6356 25.6787 34.4426 25.7586 34.2414 25.7586Z" fill="#0D4C93"/>
</g>
<defs>
<clipPath id="clip0_903_3">
<rect width="22" height="22" fill="white" transform="translate(13 14)"/>
</clipPath>
</defs>
</svg>
